<mxfile host="app.diagrams.net" modified="2023-04-12T00:45:57.150Z" agent="Mozilla/5.0 (Windows NT 10.0; Win64; x64) AppleWebKit/537.36 (KHTML, like Gecko) Chrome/111.0.0.0 Safari/537.36 Edg/111.0.1661.51" version="21.1.5" etag="iMd9gWfvk4Q4n3Eir71-" type="github">
  <diagram name="第 1 页" id="YAax4Ib2rblbw97E96Yk">
    <mxGraphModel>
      <root>
        <mxCell id="0" />
        <mxCell id="1" parent="0" />
      </root>
    </mxGraphModel>
  </diagram>
</mxfile>
